<svg width="108" height="109" viewBox="0 0 108 109" fill="none" xmlns="http://www.w3.org/2000/svg">
<g filter="url(#filter0_d_429_37769)">
<rect x="3" width="102" height="102" rx="51" fill="white"/>
<rect x="3.5" y="0.5" width="101" height="101" rx="50.5" stroke="#E7F0F5"/>
<path d="M53.9485 71.5054C65.2732 71.5054 74.4537 62.325 74.4537 51.0003C74.4537 39.6756 65.2732 30.4951 53.9485 30.4951C42.6238 30.4951 33.4434 39.6756 33.4434 51.0003C33.4434 62.325 42.6238 71.5054 53.9485 71.5054Z" fill="#EEF6FF"/>
<path d="M35.8149 60.5792L39.4364 61.1528C37.7273 58.1598 36.7506 54.6946 36.7506 51.0012C36.7506 50.6496 36.76 50.3004 36.7774 49.9531L36.3618 48.6362L33.4638 50.1129C33.4506 50.4088 33.4438 50.705 33.4434 51.0012C33.4434 54.4612 34.3016 57.7203 35.8149 60.5792ZM47.7282 32.8407L46.4488 31.9111C43.8776 32.9221 41.5609 34.4383 39.6187 36.3364L40.1501 39.6915C42.0538 36.8183 44.6618 34.4527 47.7282 32.8407ZM46.6151 70.1545C48.8925 71.0269 51.3643 71.5064 53.9485 71.5064C54.5054 71.5064 55.0567 71.4834 55.6022 71.4399C52.2119 71.1692 49.0546 70.073 46.33 68.354L46.6151 70.1545Z" fill="#C0D7EF"/>
<path d="M71.0872 48.091L73.9674 49.5585C73.7255 44.235 71.4539 39.441 67.9078 35.9314L67.2345 40.1832L57.6222 33.8582L60.9847 31.4152C58.6618 30.5018 56.1319 30 53.4849 30C50.8378 30 48.308 30.5018 45.9852 31.4151L49.3477 33.8581L39.8327 40.1191L39.155 35.8402C35.5427 39.3703 33.23 44.2235 33 49.6167L35.8981 48.14L39.8948 60.8027L35.3511 60.0831C37.6605 64.4464 41.498 67.8756 46.1514 69.6583L45.673 66.6381H61.2797L60.8001 69.6652C65.4571 67.886 69.2985 64.4587 71.6117 60.0956L67.071 60.8147L71.0872 48.091ZM65.7359 61.0265L62.9542 61.4672L58.2676 56.7805L60.5642 49.7121L66.9888 46.0028L69.9944 47.5342L65.7359 61.0265ZM67.0267 41.4946L66.4881 44.895L60.3072 48.4637L54.0898 43.9465V36.4245L56.5764 34.6179L67.0267 41.4946ZM50.3934 34.618L52.8801 36.4246V43.9464L46.6872 48.4457L40.5944 44.9281L40.0405 41.4305L50.3934 34.618ZM36.991 47.5833L40.0628 46.0182L46.3927 49.6726L48.6802 56.7122L43.9478 61.4447L41.2303 61.0144L36.991 47.5833ZM45.4814 65.4284L44.9608 62.1422L49.5997 57.5034H57.2796L61.9817 62.2056L61.4713 65.4283H45.4814V65.4284Z" fill="#474747"/>
</g>
<defs>
<filter id="filter0_d_429_37769" x="0" y="0" width="108" height="109" filterUnits="userSpaceOnUse" color-interpolation-filters="sRGB">
<feFlood flood-opacity="0" result="BackgroundImageFix"/>
<feColorMatrix in="SourceAlpha" type="matrix" values="0 0 0 0 0 0 0 0 0 0 0 0 0 0 0 0 0 0 127 0" result="hardAlpha"/>
<feOffset dy="4"/>
<feGaussianBlur stdDeviation="1.5"/>
<feComposite in2="hardAlpha" operator="out"/>
<feColorMatrix type="matrix" values="0 0 0 0 0.054902 0 0 0 0 0.184314 0 0 0 0 0.384314 0 0 0 0.02 0"/>
<feBlend mode="normal" in2="BackgroundImageFix" result="effect1_dropShadow_429_37769"/>
<feBlend mode="normal" in="SourceGraphic" in2="effect1_dropShadow_429_37769" result="shape"/>
</filter>
</defs>
</svg>
